<svg height="300px" width="300px" fill="#000000" xmlns="http://www.w3.org/2000/svg" data-name="Layer 1" viewBox="0 0 32 32" x="0px" y="0px"><title>No Image</title><path d="M29.25,18.75A5.94,5.94,0,0,0,27,17.34V7a3,3,0,0,0-3-3H4A3,3,0,0,0,1,7V21a2.87,2.87,0,0,0,.25,1.18v.06h0A3,3,0,0,0,4,24H19.09a6,6,0,0,0,10.16,3.25h0A6,6,0,0,0,29.25,18.75ZM21.56,25a4,4,0,0,1,.61-4.86A4,4,0,0,1,25,19a4,4,0,0,1,.82.09,3.84,3.84,0,0,1,1.22.47Zm-6.82-7.7-4-5A1,1,0,0,0,10,12a1,1,0,0,0-.77.34L3,19.39V7A1,1,0,0,1,4,6H24a1,1,0,0,1,1,1V17a5.86,5.86,0,0,0-1.8.28l-3.55-3a1,1,0,0,0-1.3,0Zm13.09,8.5a4,4,0,0,1-4.86.6L28.44,21A4,4,0,0,1,27.83,25.83Z"/><circle cx="16" cy="10" r="2"/></svg>